<?xml version="1.0" encoding="UTF-8"?>
<svg id="Layer_1" xmlns="http://www.w3.org/2000/svg" xmlns:xlink="http://www.w3.org/1999/xlink" version="1.1" viewBox="0 0 300 92">
  <!-- Generator: Adobe Illustrator 29.8.2, SVG Export Plug-In . SVG Version: 2.1.1 Build 3)  -->
  <defs>
    <style>
      .st0 {
        fill: #231f20;
      }

      .st1 {
        fill: url(#linear-gradient);
      }
    </style>
    <linearGradient id="linear-gradient" x1="30.16" y1="32.66" x2="94.66" y2="32.66" gradientUnits="userSpaceOnUse">
      <stop offset="0" stop-color="#8dc640"/>
      <stop offset="1" stop-color="#00a750"/>
    </linearGradient>
  </defs>
  <g>
    <path class="st0" d="M26.97,76.81c.71.37,1.25.9,1.64,1.57.39.68.58,1.46.58,2.34s-.19,1.65-.58,2.33c-.39.68-.94,1.21-1.64,1.58-.71.37-1.53.56-2.47.56h-3.35v-8.95h3.35c.94,0,1.77.19,2.47.56ZM26.28,82.63c.46-.45.69-1.09.69-1.91s-.23-1.47-.69-1.92-1.1-.69-1.92-.69h-1.03v5.2h1.03c.82,0,1.47-.23,1.92-.68Z"/>
    <path class="st0" d="M41.69,85.19l-1.86-3.38h-.52v3.38h-2.18v-8.95h3.66c.71,0,1.31.12,1.8.37.5.25.87.58,1.11,1.01.25.43.37.91.37,1.43,0,.59-.17,1.13-.5,1.59-.34.47-.83.8-1.48.99l2.06,3.54h-2.46ZM39.31,80.27h1.35c.4,0,.7-.1.9-.29.2-.19.3-.47.3-.83s-.1-.61-.3-.8-.5-.29-.9-.29h-1.35v2.22Z"/>
    <path class="st0" d="M54.33,77.99v1.81h2.92v1.68h-2.92v1.96h3.3v1.75h-5.48v-8.95h5.48v1.75h-3.3Z"/>
    <path class="st0" d="M71.34,83.61h-3.34l-.54,1.58h-2.28l3.24-8.95h2.52l3.24,8.95h-2.31l-.54-1.58ZM70.77,81.93l-1.11-3.28-1.1,3.28h2.21Z"/>
    <path class="st0" d="M92.01,76.25v8.95h-2.18v-5.37l-2,5.37h-1.76l-2.01-5.38v5.38h-2.18v-8.95h2.57l2.51,6.19,2.49-6.19h2.56Z"/>
    <path class="st0" d="M116.38,81.37c.31.4.47.87.47,1.38,0,.75-.26,1.34-.78,1.78-.52.44-1.25.66-2.19.66h-4.17v-8.95h4.03c.91,0,1.62.21,2.13.62s.77.98.77,1.69c0,.53-.14.96-.41,1.31-.28.35-.64.59-1.1.73.52.11.93.37,1.25.77ZM111.89,79.86h1.43c.36,0,.63-.08.82-.24s.29-.39.29-.69-.1-.54-.29-.7c-.19-.16-.47-.24-.82-.24h-1.43v1.87ZM114.34,83.18c.2-.17.3-.41.3-.72s-.1-.56-.31-.74c-.21-.18-.5-.27-.86-.27h-1.58v1.98h1.61c.37,0,.65-.08.85-.25Z"/>
    <path class="st0" d="M127.01,76.25v8.95h-2.18v-8.95h2.18Z"/>
    <path class="st0" d="M141.24,79.07c-.16-.3-.39-.52-.69-.68-.3-.16-.66-.24-1.06-.24-.71,0-1.27.23-1.7.69-.42.46-.64,1.08-.64,1.85,0,.82.22,1.47.67,1.93.45.46,1.06.69,1.84.69.54,0,.99-.14,1.36-.41.37-.27.64-.66.81-1.17h-2.77v-1.61h4.74v2.03c-.16.54-.44,1.05-.82,1.52-.39.47-.88.85-1.47,1.13s-1.27.43-2.01.43c-.88,0-1.67-.19-2.36-.58-.69-.39-1.23-.92-1.62-1.61s-.58-1.47-.58-2.36.19-1.67.58-2.36c.39-.69.92-1.23,1.61-1.62.69-.39,1.47-.58,2.36-.58,1.07,0,1.97.26,2.71.78.73.52,1.22,1.24,1.46,2.15h-2.41Z"/>
    <path class="st0" d="M151.81,84.96c-.24-.23-.36-.5-.36-.83s.12-.62.36-.85c.24-.23.55-.34.94-.34s.68.12.92.34c.24.23.36.51.36.85s-.12.61-.36.83c-.24.23-.55.34-.92.34s-.69-.11-.94-.34Z"/>
    <path class="st0" d="M168.48,76.25v1.75h-2.37v7.2h-2.18v-7.2h-2.37v-1.75h6.92Z"/>
    <path class="st0" d="M180.85,85.19l-1.86-3.38h-.52v3.38h-2.18v-8.95h3.66c.71,0,1.31.12,1.8.37.5.25.87.58,1.11,1.01.25.43.37.91.37,1.43,0,.59-.17,1.13-.5,1.59-.34.47-.83.8-1.48.99l2.06,3.54h-2.46ZM178.47,80.27h1.35c.4,0,.7-.1.9-.29.2-.19.3-.47.3-.83s-.1-.61-.3-.8-.5-.29-.9-.29h-1.35v2.22Z"/>
    <path class="st0" d="M196.89,83.61h-3.34l-.54,1.58h-2.28l3.24-8.95h2.52l3.24,8.95h-2.31l-.54-1.58ZM196.33,81.93l-1.11-3.28-1.1,3.28h2.21Z"/>
    <path class="st0" d="M213.25,76.81c.71.37,1.25.9,1.64,1.57.39.68.58,1.46.58,2.34s-.19,1.65-.58,2.33c-.39.68-.94,1.21-1.64,1.58-.71.37-1.53.56-2.47.56h-3.35v-8.95h3.35c.94,0,1.77.19,2.47.56ZM212.56,82.63c.46-.45.69-1.09.69-1.91s-.23-1.47-.69-1.92-1.1-.69-1.92-.69h-1.03v5.2h1.03c.82,0,1.47-.23,1.92-.68Z"/>
    <path class="st0" d="M225.59,77.99v1.81h2.92v1.68h-2.92v1.96h3.3v1.75h-5.48v-8.95h5.48v1.75h-3.3Z"/>
    <path class="st0" d="M253.11,81.37c.31.4.47.87.47,1.38,0,.75-.26,1.34-.78,1.78-.52.44-1.25.66-2.19.66h-4.17v-8.95h4.03c.91,0,1.62.21,2.13.62s.77.98.77,1.69c0,.53-.14.96-.41,1.31-.28.35-.64.59-1.1.73.52.11.93.37,1.25.77ZM248.62,79.86h1.43c.36,0,.63-.08.82-.24s.29-.39.29-.69-.1-.54-.29-.7c-.19-.16-.47-.24-.82-.24h-1.43v1.87ZM251.07,83.18c.2-.17.3-.41.3-.72s-.1-.56-.31-.74c-.21-.18-.5-.27-.86-.27h-1.58v1.98h1.61c.37,0,.65-.08.85-.25Z"/>
    <path class="st0" d="M263.74,76.25v8.95h-2.18v-8.95h2.18Z"/>
    <path class="st0" d="M277.97,79.07c-.16-.3-.39-.52-.69-.68-.3-.16-.66-.24-1.06-.24-.71,0-1.27.23-1.7.69-.42.46-.64,1.08-.64,1.85,0,.82.22,1.47.67,1.93.45.46,1.06.69,1.84.69.54,0,.99-.14,1.36-.41.37-.27.64-.66.81-1.17h-2.77v-1.61h4.74v2.03c-.16.54-.44,1.05-.82,1.52-.39.47-.88.85-1.47,1.13s-1.27.43-2.01.43c-.88,0-1.67-.19-2.36-.58-.69-.39-1.23-.92-1.62-1.61s-.58-1.47-.58-2.36.19-1.67.58-2.36c.39-.69.92-1.23,1.61-1.62.69-.39,1.47-.58,2.36-.58,1.07,0,1.97.26,2.71.78.73.52,1.22,1.24,1.46,2.15h-2.41Z"/>
    <path class="st0" d="M288.54,84.96c-.24-.23-.36-.5-.36-.83s.12-.62.36-.85c.24-.23.55-.34.94-.34s.68.12.92.34c.24.23.36.51.36.85s-.12.61-.36.83c-.24.23-.55.34-.92.34s-.69-.11-.94-.34Z"/>
  </g>
  <g>
    <path class="st0" d="M39.92,37.25c-1.43,1.24-3.26,1.99-5.36,1.99-4.27,0-7.15-3.09-7.15-7.51,0-1.43.28-2.78.77-3.98.06-.16.13-.32.2-.47,0-.02.02-.05.04-.08.31-.68.71-1.3,1.2-1.85,1.54-1.84,3.79-2.98,6.43-2.98,4,0,6.75,2.87,7.02,6.84,2.04.91,4.24,1.84,6.44,2.76l3.62-26.13h-6.84l-1.91,13.79c-1.95-2.16-4.94-3.45-8.59-3.45-8.44,0-15.44,6.49-15.44,15.9,0,7.82,5.35,13.33,13.28,13.33,2.98,0,5.86-.93,7.98-2.73l-.31,2.11h6.43l.52-3.73c-.08-.04-.17-.08-.25-.11-2.85-1.3-5.67-2.6-8.08-3.7"/>
    <path class="st0" d="M61.05,36.76c1.42-1.24,3.25-1.98,5.34-1.98.82,0,1.59.11,2.3.33,1.63-1.47,3.44-3.12,5.3-4.8-1.93-1.09-4.19-1.71-6.68-1.71-2.88,0-5.4.82-7.46,2.27l1.75-12.61h-6.79l-2.11,15.04c.52.21,1.05.43,1.55.64,2.48,1.02,4.84,1.99,6.8,2.83"/>
    <path class="st0" d="M73.59,42.34c0,.51-.04,1-.11,1.49,0,.06-.01.11-.02.17-.02.11-.03.22-.06.33-.03.19-.08.38-.13.57-.98,3.9-4.15,6.75-8.33,6.75s-6.72-2.75-7.02-6.82c-.94-.37-2.03-.78-3.16-1.19-1.07-.4-2.21-.82-3.34-1.26l-2.07,14.83h6.43l.47-3.29c1.95,2.47,5.4,3.91,9.36,3.91,8.44,0,15.03-7,15.03-15.54,0-1.95-.36-3.8-1.02-5.46-2.1,1.9-4.22,3.82-6.03,5.47v.04"/>
    <path class="st0" d="M110.75,28.6c-3.35,0-6.23,1.24-8.08,3.81l.41-3.19h-6.33l-3.91,28h6.74l2.27-16.42c.52-3.66,3.25-6.02,6.59-6.02s5.25,2.32,4.78,5.87l-2.32,16.57h6.74l2.42-17.34c.87-6.38-2.93-11.27-9.32-11.27"/>
    <polygon class="st0" points="142.39 29.22 133.23 47.38 129.17 29.22 122.12 29.22 129.17 57.21 135.14 57.21 150.11 29.22 142.39 29.22"/>
    <path class="st0" d="M155.67,39.97c1.03-3.45,3.29-5.82,7.31-5.82,3.55,0,5.92,2.42,5.86,5.82h-13.17ZM163.03,28.6c-8.44,0-14.82,7-14.82,15.54,0,7.72,5.3,13.69,13.58,13.69,5.66,0,10.34-2.73,12.35-6.79l-5.35-2.78c-1.39,2.11-3.71,3.66-6.85,3.66-3.96,0-6.63-2.47-6.84-6.8h20.23c.31-1.29.57-2.62.57-3.86,0-7-4.58-12.66-12.87-12.66"/>
    <path class="st0" d="M189.47,34.1c2.73,0,5.09,1.54,5.76,4.01l5.3-2.11c-1.23-4.58-5.41-7.41-10.81-7.41-6.28,0-10.96,3.96-10.96,9.16,0,3.7,2.27,6.43,6.43,7.61l4.48,1.29c1.44.36,2.83,1.08,2.83,2.68,0,1.8-1.6,3.19-4.37,3.19-3.19,0-5.66-1.85-6.84-4.89l-5.2,2.11c1.13,4.84,5.87,8.08,11.79,8.08,6.59,0,11.27-3.96,11.27-9.11,0-3.6-2.31-6.23-6.53-7.51l-4.33-1.34c-1.59-.46-2.93-1.19-2.93-2.78,0-1.8,1.7-2.99,4.12-2.99"/>
    <path class="st0" d="M213.81,35.24h6.38l.83-6.02h-6.33l.87-6.38h-6.84l-.26,1.95c-.36,2.78-2.37,4.43-5.09,4.43h-.36l-.82,6.02h4.78l-1.7,12.2c-.87,6.28,2.42,10.08,8.9,10.08.87,0,2.21-.05,3.19-.31l.52-5.76c-.82.15-1.39.15-2.01.15-3.19,0-4.17-1.34-3.76-4.22l1.7-12.14Z"/>
    <polygon class="st0" points="232.59 18.87 225.8 18.87 224.77 26.08 231.62 26.08 232.59 18.87"/>
    <polygon class="st0" points="220.45 57.21 227.24 57.21 231.15 29.22 224.36 29.22 220.45 57.21"/>
    <path class="st0" d="M249.37,28.6c-3.35,0-6.23,1.24-8.08,3.81l.41-3.19h-6.33l-3.91,28h6.74l2.27-16.42c.52-3.66,3.25-6.02,6.59-6.02s5.25,2.32,4.78,5.87l-2.32,16.57h6.74l2.42-17.34c.87-6.38-2.93-11.27-9.32-11.27"/>
    <path class="st0" d="M273.49,49.78c-2.63-.33-5.17-2.84-5.52-5.46-.7-5.28,3.07-9.54,8-9.54,4.07,0,6.64,2.88,6.64,6.9,0,4.78-3.84,8.78-9.12,8.11M284.77,29.22l-.41,3.19c-2.06-2.47-5.3-3.81-9.06-3.81-8.13,0-14.41,6.28-14.41,14.62,0,7.51,5.35,12.87,12.81,12.87,2.83,0,5.3-.77,7.26-2.37l-.36,2.47c-.52,3.7-3.7,6.18-7.67,6.18-3.65,0-6.02-1.59-6.53-4.17l-6.38,1.95c1.03,4.94,6.02,8.39,12.4,8.39,7.92,0,14.05-5.05,15.03-12.15l3.76-27.17h-6.43Z"/>
    <path class="st0" d="M91.27,29.62c-.6.15-1.22.23-1.83.23s-1.2-.08-1.8-.22c-.03,0-.05.02-.08.04-.52.47-1.11,1-1.73,1.56-.3.49-.52,1.04-.6,1.63l-3.4,24.36h6.79l3.91-28h-.09c-.37.16-.76.3-1.17.4"/>
    <path class="st1" d="M89.43,16.96c-.18,0-.35,0-.53.02-.51.05-1,.18-1.47.38-.93.4-1.73,1.07-2.29,1.9-.29.42-.51.88-.67,1.37-.2.62-.26,1.22-.23,1.79.03.57.16,1.11.36,1.63-1.36,1.23-3.01,2.71-4.77,4.3-1.12,1.01-2.28,2.06-3.44,3.11-.02.02-.04.04-.07.06-.09.08-.17.16-.26.23-1.75,1.59-3.47,3.14-5.05,4.58-.91.82-1.79,1.62-2.56,2.32-.77-.45-1.65-.73-2.6-.73-.8,0-1.55.19-2.23.51-.67.33-1.27.8-1.74,1.36-.73-.33-1.57-.7-2.48-1.08-2.04-.87-4.47-1.86-7.04-2.92-1.05-.43-2.12-.87-3.19-1.32-2.11-.88-4.24-1.77-6.24-2.66-.81-.35-1.61-.71-2.37-1.06,0-.12.04-.23.04-.35,0-.33-.04-.65-.1-.96,0-.04-.01-.09-.02-.13-.06-.3-.15-.58-.26-.86-.02-.05-.04-.1-.07-.15-.11-.27-.25-.53-.42-.77-.03-.04-.05-.07-.08-.11-.18-.25-.37-.49-.58-.7,0,0,0,0,0,0-.22-.22-.45-.41-.7-.58-.04-.02-.07-.05-.1-.07-.24-.16-.5-.3-.77-.42-.05-.02-.1-.04-.15-.07-.27-.11-.55-.2-.85-.26-.05,0-.1-.01-.14-.02-.31-.06-.63-.1-.95-.1-.13,0-.27,0-.41.02-.07,0-.13,0-.2,0-.2.02-.41.06-.62.11h0c-.23.05-.46.12-.69.21-.22.09-.43.19-.65.31-1.25.7-2.19,1.92-2.51,3.33-.29,1.28-.11,2.5.4,3.54.08.17.18.34.28.5.93,1.45,2.55,2.4,4.4,2.4.71,0,1.39-.14,2.01-.4.62-.26,1.18-.64,1.64-1.09.78.36,1.64.75,2.55,1.17,2.14.98,4.56,2.1,7.02,3.22.14.06.28.13.42.19.85.39,1.79.78,2.76,1.16,2.11.84,4.38,1.64,6.28,2.37.94.36,1.78.7,2.47,1.01.04.02.07.03.11.05,0,.36.07.72.15,1.07.02.11.07.22.11.32.07.23.14.45.24.66.06.12.13.23.2.36.11.18.21.36.33.52.09.12.18.22.28.33.13.14.26.29.41.43.11.1.23.19.34.28.15.12.31.23.47.33.13.08.26.14.4.21.17.09.35.16.53.23.14.05.29.1.44.13.19.05.38.09.58.12.16.02.32.04.48.04.31.01.62.02.94-.02.31-.04.61-.11.9-.22.29-.11.57-.24.84-.4.53-.32,1.01-.74,1.41-1.22,1.01-1.2,1.37-2.28,1.38-3.27,0-.2,0-.39-.03-.58-.04-.38-.14-.75-.25-1.1.7-.64,1.5-1.37,2.34-2.13,1.61-1.46,3.43-3.1,5.36-4.85,2.8-2.53,5.8-5.24,8.6-7.77.23.12.48.22.72.31.07.02.13.04.2.06.22.07.46.13.7.16.03,0,.06.01.09.02.27.03.55.05.83.03.06,0,.12,0,.19,0,.28-.02.57-.05.87-.13.26-.06.51-.15.76-.25.24-.1.47-.22.7-.36.89-.54,1.62-1.34,2.06-2.28.11-.23.2-.47.27-.73.08-.25.13-.51.16-.77.05-.38.05-.75.01-1.11,0-.02,0-.05,0-.08-.03-.34-.11-.67-.21-1,0-.03-.02-.07-.03-.11-.11-.31-.24-.6-.39-.88-.02-.04-.04-.08-.07-.12-.16-.27-.35-.53-.55-.76-.03-.03-.06-.07-.1-.11-.22-.23-.44-.44-.69-.63-.04-.03-.08-.06-.12-.09-.26-.18-.53-.34-.81-.48-.04-.02-.09-.04-.13-.05-.3-.13-.6-.24-.92-.31-.04,0-.08-.02-.12-.02-.33-.07-.67-.11-1.02-.11h-.04Z"/>
  </g>
</svg>